<svg width="213" height="39" viewBox="0 0 213 39" fill="none" xmlns="http://www.w3.org/2000/svg">
<path d="M19.476 0.819998C23.4973 0.819998 26.8773 1.42667 29.616 2.64V12.468H27.224L24.832 4.772C23.48 4.46 21.92 4.304 20.152 4.304C11.52 4.304 7.204 9.46933 7.204 19.8C7.204 30.1307 11.1733 35.296 19.112 35.296C20.2907 35.296 21.348 35.2613 22.284 35.192C23.22 35.1227 24.0693 35.0187 24.832 34.88L27.848 26.664H30.24L29.876 36.492C29.3907 36.7693 28.6973 37.0467 27.796 37.324C26.8947 37.6013 25.9067 37.844 24.832 38.052C23.792 38.26 22.7 38.4333 21.556 38.572C20.4467 38.7107 19.424 38.78 18.488 38.78C12.6293 38.78 8.192 37.1507 5.176 33.892C2.16 30.6333 0.652 25.936 0.652 19.8C0.652 13.664 2.212 8.96667 5.332 5.708C8.48667 2.44933 13.2013 0.819998 19.476 0.819998ZM32.3667 38V35.608L37.2547 34.464L49.8907 1.34H53.6347L65.4907 34.516L70.2747 35.608V38H54.9867V35.608L58.8347 34.724L56.3387 27.704H43.5987L40.8947 34.568L45.4707 35.608V38H32.3667ZM44.7427 24.636H55.1947L50.0987 10.44L44.7427 24.636ZM72.4482 38V35.608L77.2322 34.464V5.136L72.4482 3.992V1.6H87.1642C89.0362 1.6 90.7522 1.756 92.3122 2.068C93.8722 2.34533 95.3802 2.848 96.8362 3.576C98.3268 4.26933 99.4882 5.32667 100.32 6.748C101.187 8.13466 101.62 9.816 101.62 11.792C101.62 16.4027 99.2282 19.5227 94.4442 21.152L101.672 34.516L106.248 35.66V38H96.7842L88.2042 21.932H83.6282V34.464L88.4122 35.608V38H72.4482ZM83.6282 18.812H86.6442C89.1748 18.812 91.2028 18.188 92.7282 16.94C94.2882 15.692 95.0682 13.9413 95.0682 11.688C95.0682 9.46933 94.3055 7.788 92.7802 6.644C91.2548 5.46533 89.2095 4.876 86.6442 4.876H83.6282V18.812ZM125.931 0.819998C128.739 0.819998 131.218 1.288 133.367 2.224C135.517 3.16 137.337 4.46 138.827 6.124C140.318 7.788 141.445 9.78133 142.207 12.104C142.97 14.4267 143.351 16.9747 143.351 19.748C143.351 22.556 142.97 25.1213 142.207 27.444C141.479 29.7667 140.37 31.7773 138.879 33.476C137.423 35.14 135.603 36.44 133.419 37.376C131.27 38.312 128.774 38.78 125.931 38.78C122.915 38.78 120.298 38.2773 118.079 37.272C115.895 36.2667 114.093 34.9147 112.671 33.216C111.25 31.4827 110.193 29.4547 109.499 27.132C108.841 24.8093 108.511 22.3133 108.511 19.644C108.511 17.044 108.858 14.6173 109.551 12.364C110.245 10.076 111.302 8.08267 112.723 6.384C114.145 4.65066 115.947 3.29866 118.131 2.328C120.35 1.32266 122.95 0.819998 125.931 0.819998ZM125.931 3.888C122.395 3.888 119.709 5.37867 117.871 8.36C116.069 11.3067 115.167 15.12 115.167 19.8C115.167 24.7573 116.121 28.6573 118.027 31.5C119.969 34.308 122.603 35.712 125.931 35.712C129.259 35.712 131.877 34.308 133.783 31.5C135.725 28.6573 136.695 24.7573 136.695 19.8C136.695 15.12 135.777 11.3067 133.939 8.36C132.137 5.37867 129.467 3.888 125.931 3.888ZM144.187 38V35.608L149.075 34.464L161.711 1.34H165.455L177.311 34.516L182.095 35.608V38H166.807V35.608L170.655 34.724L168.159 27.704H155.419L152.715 34.568L157.291 35.608V38H144.187ZM156.563 24.636H167.015L161.919 10.44L156.563 24.636ZM184.268 38V35.608L189.052 34.464V5.136L184.268 3.992V1.6H200.232V3.992L195.448 5.136V34.516H207.668L210.476 26.768H212.868L212.348 38H184.268Z" fill="#484848"/>
</svg>
